HIERARCHY
ROOT root
{
	OFFSET 0.000000 0.000000 0.000000
	CHANNELS 6 Xposition Yposition Zposition Zrotation Yrotation Xrotation
	JOINT lhip
	{
		OFFSET 0.058581 -0.082280 -0.017664
		CHANNELS 3 Zrotation Yrotation Xrotation
		JOINT lknee
		{
			OFFSET 0.043451 -0.386469 0.008037
			CHANNELS 3 Zrotation Yrotation Xrotation
			JOINT lankle
			{
				OFFSET -0.014790 -0.426874 -0.037428
				CHANNELS 3 Zrotation Yrotation Xrotation
				JOINT ltoe
				{
					OFFSET 0.041054 -0.060286 0.122042
					CHANNELS 3 Zrotation Yrotation Xrotation
					End Site
					{
						OFFSET 0.000000 0.000000 0.000000
					}
				}
			}
		}
	}
	JOINT rhip
	{
		OFFSET -0.060310 -0.090513 -0.013543
		CHANNELS 3 Zrotation Yrotation Xrotation
		JOINT rknee
		{
			OFFSET -0.043257 -0.383688 -0.004843
			CHANNELS 3 Zrotation Yrotation Xrotation
			JOINT rankle
			{
				OFFSET 0.019056 -0.420046 -0.034562
				CHANNELS 3 Zrotation Yrotation Xrotation
				JOINT rtoe
				{
					OFFSET -0.034840 -0.062106 0.130323
					CHANNELS 3 Zrotation Yrotation Xrotation
					End Site
					{
						OFFSET 0.000000 0.000000 0.000000
					}
				}
			}
		}
	}
	JOINT lowerback
	{
		OFFSET 0.004439 0.124404 -0.038385
		CHANNELS 3 Zrotation Yrotation Xrotation
		JOINT upperback
		{
			OFFSET 0.004488 0.137956 0.026820
			CHANNELS 3 Zrotation Yrotation Xrotation
			JOINT chest
			{
				OFFSET -0.002265 0.056032 0.002855
				CHANNELS 3 Zrotation Yrotation Xrotation
				JOINT lowerneck
				{
					OFFSET -0.013390 0.211636 -0.033468
					CHANNELS 3 Zrotation Yrotation Xrotation
					JOINT upperneck
					{
						OFFSET 0.010113 0.088937 0.050410
						CHANNELS 3 Zrotation Yrotation Xrotation
						End Site
						{
							OFFSET 0.000000 0.000000 0.000000
						}
					}
				}
				JOINT lclavicle
				{
					OFFSET 0.071702 0.114000 -0.018898
					CHANNELS 3 Zrotation Yrotation Xrotation
					JOINT lshoulder
					{
						OFFSET 0.122921 0.045205 -0.019046
						CHANNELS 3 Zrotation Yrotation Xrotation
						JOINT lelbow
						{
							OFFSET 0.255332 -0.015649 -0.022946
							CHANNELS 3 Zrotation Yrotation Xrotation
							JOINT lwrist
							{
								OFFSET 0.265709 0.012698 -0.007375
								CHANNELS 3 Zrotation Yrotation Xrotation
								End Site
								{
									OFFSET 0.000000 0.000000 0.000000
								}
							}
						}
					}
				}
				JOINT rclavicle
				{
					OFFSET -0.082954 0.112472 -0.023707
					CHANNELS 3 Zrotation Yrotation Xrotation
					JOINT rshoulder
					{
						OFFSET -0.113228 0.046853 -0.008472
						CHANNELS 3 Zrotation Yrotation Xrotation
						JOINT relbow
						{
							OFFSET -0.260127 -0.014369 -0.031269
							CHANNELS 3 Zrotation Yrotation Xrotation
							JOINT rwrist
							{
								OFFSET -0.269108 0.006794 -0.006027
								CHANNELS 3 Zrotation Yrotation Xrotation
								End Site
								{
									OFFSET 0.000000 0.000000 0.000000
								}
							}
						}
					}
				}
			}
		}
	}
}
MOTION
Frames: 11
Frame Time: 0.033333
0.557761 0.551968 0.992207 87.949710 -2.666979 81.837657 -6.373774 -1.679537 1.409308 -6.149048 -12.826355 13.987701 8.547184 8.763786 -10.473569 0.000000 -0.000000 0.000000 -1.360598 1.098595 -9.270559 -3.192572 1.610409 61.920971 1.846893 -14.795512 1.715887 0.000000 -0.000000 0.000000 -1.377471 -0.438899 14.462913 0.726398 2.413996 -4.095352 -1.483068 -0.386420 2.687752 2.988920 3.318367 -9.850063 -4.315340 0.458665 9.323914 -31.285160 6.704986 -0.937563 -49.565842 -4.947038 6.830329 8.537770 -27.098623 4.630163 -5.288304 1.347952 -2.727920 33.058256 0.067631 -2.121295 50.382708 4.751748 15.285427 -12.296712 18.222266 -13.206915 8.197165 -0.089921 -3.051881 
0.597158 0.551774 0.994784 89.527191 -2.019592 81.781401 -5.510583 0.106401 5.256938 -5.811374 -15.604077 11.556616 7.816133 8.102305 -11.276020 0.000000 -0.000000 0.000000 -1.102530 0.788383 -13.011980 -2.920681 -0.246510 58.491727 2.352303 -14.567763 -2.583460 0.000000 -0.000000 0.000000 -1.051127 -1.992572 14.727879 0.852157 1.950271 -4.050472 -1.373878 -1.078876 2.481423 2.975904 4.389110 -9.668841 -4.296714 0.102731 9.367206 -30.652618 5.636747 -0.721691 -48.960409 -6.058092 6.756997 8.601138 -27.910788 4.069453 -4.719588 1.112599 -1.994622 33.108782 0.272293 -1.946231 50.633050 4.167059 14.691853 -12.071486 18.221595 -13.110794 8.443386 0.037301 -2.875561 
0.635836 0.551058 0.995447 91.003196 -1.197191 81.583206 -4.217660 1.258083 9.045600 -5.577416 -17.216930 9.781518 7.054022 8.622234 -12.995647 0.000000 -0.000000 0.000000 -1.005156 0.490676 -15.816140 -2.013952 -2.574249 52.700727 3.610904 -13.844796 -5.548498 0.000000 -0.000000 0.000000 -0.588065 -3.213250 15.450337 0.989963 1.470828 -4.128007 -1.046823 -1.592047 2.314139 2.819332 5.104014 -9.858132 -4.264628 -0.312635 9.259037 -30.085148 4.772634 -0.941920 -48.605459 -7.185320 6.790432 8.554264 -28.833637 3.741298 -3.809670 0.507328 -1.691806 33.121904 0.000316 -2.004190 50.743082 3.444093 14.374878 -12.150655 19.167611 -12.303997 8.120161 0.408923 -2.413380 
0.674577 0.549938 0.993133 91.850338 -0.666787 81.464396 -3.087356 2.347530 13.139337 -5.141334 -17.640940 6.963766 6.069692 8.177177 -13.927213 0.000000 -0.000000 0.000000 -1.031186 0.236238 -17.914345 -1.753384 -4.958396 44.778162 5.068527 -13.489391 -6.937675 0.000000 -0.000000 0.000000 -0.445957 -4.160183 16.201636 0.964050 1.289148 -4.170991 -0.589224 -2.011463 2.262381 2.627873 5.728301 -10.409302 -4.114903 -0.546272 9.036443 -29.541529 4.311767 -1.133083 -48.275983 -8.734018 6.655418 8.780904 -30.545131 3.401951 -3.052677 0.143398 -0.961187 33.089258 -0.371205 -2.017712 50.985244 2.917239 14.198771 -12.572250 20.687523 -11.891625 7.625093 0.956774 -1.778649 
0.711703 0.548932 0.988307 93.115124 -0.307382 82.301209 -1.734356 4.729081 15.294683 -4.840998 -19.354459 5.720049 5.390790 6.857108 -15.585952 0.000000 -0.000000 0.000000 -1.017745 -0.641343 -20.093889 -1.488331 -6.733085 34.995556 6.078816 -12.487037 -6.434394 0.000000 -0.000000 0.000000 -0.465682 -5.304860 16.125161 0.964008 0.916027 -4.388580 -0.070824 -2.404830 2.025674 2.413146 5.978821 -10.685252 -3.805884 -0.875330 9.096584 -29.087085 3.869218 -1.576391 -48.176469 -10.100168 6.765332 9.116971 -31.277582 2.975063 -0.872036 -0.730779 -0.581417 33.091050 -0.581487 -2.153392 51.041349 2.412946 13.967346 -12.280465 21.259260 -11.549479 6.736768 1.082688 -2.108892 
0.749748 0.547627 0.981360 93.578687 -0.275450 83.431013 -1.300477 5.318527 16.852177 -4.510483 -19.027209 5.181884 5.586191 6.396726 -16.683266 0.000000 -0.000000 0.000000 -0.473104 -1.202614 -21.505632 -1.490779 -6.949529 22.950932 6.793581 -11.901213 -1.940957 0.000000 -0.000000 0.000000 -0.667640 -5.568912 15.653574 0.975847 0.577361 -4.526302 0.554716 -2.725645 1.819467 1.915393 5.813678 -11.153362 -3.261165 -0.421182 9.146101 -28.775998 3.662130 -1.319820 -48.105712 -11.621944 6.618597 9.567578 -32.900587 2.194563 -0.592167 -0.810814 -0.511687 33.080256 -0.961464 -2.012900 51.116554 2.329900 14.149627 -12.639249 21.296794 -11.399272 6.574585 0.560382 -1.862056 
0.789404 0.545209 0.973066 93.780081 -0.366016 84.565411 -1.314937 4.639390 18.539489 -4.380308 -18.809682 4.903155 5.623998 6.868076 -17.302068 0.000000 -0.000000 0.000000 0.191466 -1.397376 -22.138626 -1.309059 -5.403256 10.617841 6.869669 -11.004433 2.127124 0.000000 -0.000000 0.000000 -0.894127 -5.242788 14.852491 1.052566 0.004633 -4.526619 1.061688 -3.160811 1.664354 1.524442 5.732127 -11.055712 -2.776166 -0.057000 8.892330 -28.361557 3.512984 -1.568005 -48.147632 -12.576246 6.984739 9.736050 -33.717360 2.017525 0.240573 -0.979620 -0.547273 32.906800 -1.356820 -1.961915 51.352635 2.320341 14.475113 -12.768391 21.477823 -11.234698 5.969561 0.585839 -2.277914 
0.830413 0.541533 0.965098 94.502981 -0.257368 85.412130 -0.498377 4.665391 20.069094 -4.315335 -19.782155 5.339580 4.383960 6.142282 -17.718224 0.000000 -0.000000 0.000000 0.802533 -2.222931 -22.719380 -0.659951 -5.745137 1.923946 8.886316 -8.941446 -2.213717 0.000000 -0.000000 0.000000 -1.076079 -5.078687 14.573472 1.254552 -0.770218 -4.723533 1.540938 -3.583367 1.462369 1.504780 6.647715 -11.260312 -2.523382 -0.470716 8.895093 -28.145752 3.109580 -1.718519 -48.168564 -13.320530 7.542804 10.291505 -34.140628 1.284454 1.603594 -1.837387 -0.383061 33.252980 -1.265548 -1.970839 51.091511 2.347099 14.120976 -12.788923 20.577247 -10.986958 5.181207 0.795088 -2.450663 
0.875116 0.537777 0.959517 94.984995 0.187202 85.482945 0.968362 4.602997 21.531014 -5.065538 -21.352968 8.337653 3.042063 5.594405 -17.720646 0.000000 -0.000000 0.000000 0.785610 -0.713766 -23.353474 -0.100410 -5.743478 3.329777 9.998836 -6.964218 -4.384780 0.000000 -0.000000 0.000000 -0.947642 -5.740148 14.759210 1.489371 -0.640423 -4.693528 1.608745 -3.477835 1.278558 1.673442 6.946106 -11.562296 -2.543805 -1.084811 8.991310 -27.932111 2.908150 -2.053215 -48.305158 -13.705728 7.796601 10.045129 -34.788172 1.598629 1.733304 -1.842785 -0.087895 33.574191 -1.458820 -2.120807 50.832500 1.767352 13.707875 -12.881430 20.874547 -10.866025 5.304440 0.669610 -2.572888 
0.922629 0.534283 0.956009 95.463677 0.445699 85.351821 1.707135 4.064151 22.714191 -5.633012 -23.177336 12.181577 1.421451 5.126216 -16.250799 0.000000 -0.000000 0.000000 0.706804 0.791580 -24.134106 -0.127658 -6.339585 9.780608 8.488392 -8.637557 -2.208291 0.000000 -0.000000 0.000000 -1.015840 -6.650229 14.135380 1.817187 -0.414362 -4.037271 1.434346 -3.532271 1.235960 1.967366 6.709356 -11.421643 -2.536941 -0.782097 9.097884 -28.241709 2.564102 -1.523088 -47.917570 -13.718835 8.214225 10.341335 -35.171080 2.037992 1.571825 -2.507789 -0.740147 33.852452 -1.013966 -1.997119 50.702844 1.881651 13.783250 -12.388748 19.109342 -11.176079 5.402369 0.761499 -3.476949 
0.972127 0.530962 0.957340 95.346643 0.790264 85.583066 1.420844 3.372814 21.622021 -6.221748 -23.297489 19.584256 -0.616069 3.981440 -11.689772 0.000000 -0.000000 0.000000 1.242194 1.536719 -25.217748 -0.405419 -5.877189 15.845457 7.217956 -9.412527 0.502699 0.000000 -0.000000 0.000000 -0.565955 -7.134013 13.195486 2.078019 -0.063344 -3.670400 1.069405 -3.660673 1.141790 2.168666 6.503264 -11.707711 -2.837170 -0.305499 10.011686 -29.508479 3.011145 -1.586111 -47.320431 -13.597922 8.216111 10.159954 -34.856958 1.801007 0.378819 -2.006344 0.444657 34.479315 -1.102352 -2.235299 50.069235 1.929866 14.239825 -12.130534 17.675100 -11.500124 5.802124 0.195685 -2.588625 
